PathFileType        4      (X/Y/Z)      C:\Users\pc\Desktop\IMUTRC\Sujet_02\Sujet_02_velo_100.trc         
DataRate	CameraRate	NumFrames	NumMarkers	Units	OrigDataRate	OrigDataStartFrame	OrigNumFrames
60.0	60.0	4	64	mm	60.0	236	943
Frame#	Time	pHipOrigin			pRightASI			pLeftASI			pRightCSI			pLeftCSI			pRightIschialTub			pLeftIschialTub			pSacrum			pL5SpinalProcess			pL3SpinalProcess			pT12SpinalProcess			pIJ			pT4SpinalProcess			pT8SpinalProcess			pPX			pC7SpinalProcess			pTopOfHead			pRightAuricularis			pLeftAuricularis			pBackOfHead			pRightAcromion			pLeftAcromion			pRightArmLatEpicondyle			pRightArmMedEpicondyle			pLeftArmLatEpicondyle			pLeftArmMedEpicondyle			pRightUlnarStyloid			pRightRadialStyloid			pRightOlecranon			pLeftUlnarStyloid			pLeftRadialStyloid			pLeftOlecranon			pRightTopOfHand			pRightPinky			pRightBallHand			pLeftTopOfHand			pLeftPinky			pLeftBallHand			pRightGreaterTrochanter			pRightKneeLatEpicondyle			pRightKneeMedEpicondyle			pRightPatella			pLeftGreaterTrochanter			pLeftKneeLatEpicondyle			pLeftKneeMedEpicondyle			pLeftPatella			pRightTibialTub			pRightLatMalleolus			pRightMedMalleolus			pLeftTibialTub			pLeftLatMalleolus			pLeftMedMalleolus			pRightHeelFoot			pRightFirstMetatarsal			pRightFifthMetatarsal			pRightPivotFoot			pRightHeelCenter			pRightToe			pLeftHeelFoot			pLeftFirstMetatarsal			pLeftFifthMetatarsal			pLeftPivotFoot			pLeftHeelCenter			pLeftToe			
		X1	Y1	Z1	X2	Y2	Z2	X3	Y3	Z3	X4	Y4	Z4	X5	Y5	Z5	X6	Y6	Z6	X7	Y7	Z7	X8	Y8	Z8	X9	Y9	Z9	X10	Y10	Z10	X11	Y11	Z11	X12	Y12	Z12	X13	Y13	Z13	X14	Y14	Z14	X15	Y15	Z15	X16	Y16	Z16	X17	Y17	Z17	X18	Y18	Z18	X19	Y19	Z19	X20	Y20	Z20	X21	Y21	Z21	X22	Y22	Z22	X23	Y23	Z23	X24	Y24	Z24	X25	Y25	Z25	X26	Y26	Z26	X27	Y27	Z27	X28	Y28	Z28	X29	Y29	Z29	X30	Y30	Z30	X31	Y31	Z31	X32	Y32	Z32	X33	Y33	Z33	X34	Y34	Z34	X35	Y35	Z35	X36	Y36	Z36	X37	Y37	Z37	X38	Y38	Z38	X39	Y39	Z39	X40	Y40	Z40	X41	Y41	Z41	X42	Y42	Z42	X43	Y43	Z43	X44	Y44	Z44	X45	Y45	Z45	X46	Y46	Z46	X47	Y47	Z47	X48	Y48	Z48	X49	Y49	Z49	X50	Y50	Z50	X51	Y51	Z51	X52	Y52	Z52	X53	Y53	Z53	X54	Y54	Z54	X55	Y55	Z55	X56	Y56	Z56	X57	Y57	Z57	X58	Y58	Z58	X59	Y59	Z59	X60	Y60	Z60	X61	Y61	Z61	X62	Y62	Z62	X63	Y63	Z63	X64	Y64	Z64	
236	3.917	0.0	1250.00218	7.654055843321067E-14	78.94452000000001	1364.87185	132.74711000000008	28.320139999999988	1364.9286	-151.81637999999992	17.76394000000001	1428.03882	117.19657000000008	-23.723080000000007	1428.09557	-116.06149999999991	-38.365559999999995	1181.38685	66.96947000000007	-59.08069	1181.38685	-49.65955999999992	-72.53134	1261.57996	12.883110000000082	-46.02732	1377.24418	9.364380000000088	5.334860000000001	1488.08433	8.513070000000091	63.84801	1583.71446	8.853590000000095	325.8235	1603.35127	-28.88767999999992	218.50208	1714.81571	4.313290000000092	139.3873	1664.07782	7.945530000000093	220.60197	1529.68485	-25.028419999999922	272.87221	1744.32768	2.4971700000000903	501.64673	1755.8487	-65.94789999999992	441.88499	1720.37758	17.93420000000008	397.84405	1754.08933	-98.97860999999992	414.13239	1785.13365	-24.574389999999916	268.72919	1688.48195	197.73020000000008	232.57702	1742.4548	-200.90840999999992	310.49997	1401.64831	261.2944400000001	272.47494	1380.6494	213.22398000000007	312.14583	1451.70515	-214.69957999999994	275.88016	1434.50875	-163.84818999999993	404.31399	1142.62402	329.62600000000003	452.72497	1161.97706	302.89497000000006	265.43747	1389.04896	250.39771000000005	429.85319	1196.71038	-251.47603999999995	470.09163	1216.97148	-214.07528999999994	271.33986	1440.29764	-208.91068999999993	591.14746	1058.62841	322.07775	505.73301	1074.46272	349.09255	446.76582	1117.36858	324.34790000000004	627.46988	1161.23926	-190.23869999999994	550.05771	1151.02358	-236.89030999999997	478.09391	1177.98163	-231.55545999999995	37.45750000000001	1222.76037	173.26932000000008	263.96187	838.53722	126.78796000000004	261.57821	839.84256	40.23844000000003	302.55444	866.80061	79.90933000000004	14.415459999999989	1233.82735	-174.5178999999999	439.6716	1094.89408	-144.77890999999997	442.79306	1101.30726	-58.45639999999997	453.34926	1145.17794	-102.66759999999995	316.00509	795.46109	82.17949000000003	175.42596	386.89057	94.32480000000001	179.90951	389.10397	26.049990000000015	470.54566	1045.40478	-104.76748999999995	192.5656	719.69479	-163.45090999999994	193.13314	714.07616	-95.23285999999997	100.90824	290.29563	28.20663000000001	277.46927	231.89598	26.106739999999995	254.08671	222.64511	110.38612	288.87678	218.78585	72.47459	140.0116	274.34781	37.287240000000004	366.00518	190.74948	90.80605999999999	75.08526	675.14306	-99.60289999999996	189.95493	529.34258	-109.76182999999999	164.75625	541.09062	-193.13313999999997	191.88456	515.72167	-157.32149999999996	98.80835	641.14754	-111.57794999999996	240.52255	451.58989	-181.10134	
237	3.933	0.0	1250.00218	7.654055843321067E-14	79.00127000000002	1364.58808	132.9741300000001	28.49039999999999	1365.09887	-151.58936999999992	17.934200000000008	1427.8118	117.48034000000008	-23.496070000000007	1428.26583	-115.77772999999992	-38.47906999999999	1181.3301	66.85596000000007	-59.1942	1181.55712	-49.77306999999992	-72.47459	1261.63671	12.88311000000008	-45.85706	1377.35768	9.534640000000087	5.959150000000001	1488.02757	8.740080000000091	64.86958	1583.43069	8.967100000000094	326.78831	1601.47839	-29.398459999999922	220.26145	1713.62388	4.029520000000091	140.8629	1663.45353	7.832020000000093	221.16951	1528.49302	-25.255439999999922	274.74509	1742.79533	1.98638000000009	503.34935	1753.91907	-67.08297999999992	443.81462	1718.61821	16.96938000000008	399.43316	1752.04619	-99.82990999999991	415.89176	1783.26078	-25.539199999999916	270.37505	1687.51714	197.2194100000001	233.82561	1741.14947	-201.0786699999999	310.49997	1400.45648	261.6349600000001	272.75871	1379.62784	213.22398000000007	311.40804	1449.88903	-214.98334999999994	275.42613	1433.0899	-163.79142999999993	404.59776	1141.48894	329.51249000000007	453.06549	1161.01224	303.12198000000006	265.49422	1387.80038	250.39771000000005	430.19371	1195.29153	-250.34095999999994	470.3754	1215.94991	-213.11046999999994	270.77232	1438.48151	-208.96744999999996	591.94201	1058.4014	322.24801	506.41405	1073.78167	349.20606	447.2766	1116.40377	324.40465000000006	627.92391	1160.21769	-189.44413999999998	550.45499	1149.94526	-236.03899999999996	478.49119	1176.7898	-230.59063999999995	36.71970000000001	1222.4766	173.4395800000001	267.93463	840.97763	128.15005000000002	266.6293	842.56674	41.600530000000035	306.86773	869.80856	81.89572000000004	14.58571999999999	1233.65709	-174.46113999999992	440.35264	1096.48319	-143.58707999999996	443.36059	1103.3504	-57.32132999999996	453.80329	1146.99406	-101.75953999999996	317.5942	795.40434	83.14430000000003	152.32717	396.02793	88.42240000000001	157.26475	398.92238	20.204350000000016	474.29141	1048.6965	-103.40539999999996	214.35906	708.85481	-164.69948999999994	214.58607	703.23619	-96.48143999999998	73.55291	303.23549	21.906960000000016	247.27625	237.00382	19.29629	223.66668	228.434	103.51891	258.17298	223.15589	65.55063	111.91847	285.58506	30.87406000000001	333.99604	191.54403	83.65508	99.77316	656.52782	-100.22718999999995	223.95045	518.55936	-110.95365999999999	197.67344	528.60478	-194.26821999999999	226.56112	505.10871	-158.51332999999997	125.59613	624.12141	-112.31574999999997	279.22864	444.26865	-182.52018	
238	3.95	0.0	1250.00218	7.654055843321067E-14	79.39855000000001	1364.41782	132.8606200000001	28.54715999999999	1365.04211	-151.6461199999999	18.388230000000007	1427.8118	117.42359000000009	-23.325810000000008	1428.32259	-115.77772999999992	-38.535819999999994	1181.38685	66.91272000000006	-59.36446	1181.67062	-49.716319999999925	-72.47459	1261.80697	12.99662000000008	-45.57329	1377.47119	9.591390000000088	6.583440000000001	1488.02757	8.68333000000009	65.9479	1583.14692	8.796840000000094	327.86663	1599.88929	-29.965999999999923	221.96407	1712.60231	3.575490000000091	142.3385	1662.82924	7.548250000000094	221.85056	1527.47145	-25.65270999999992	276.56121	1741.48999	1.4756000000000897	504.8817	1752.38672	-68.27480999999992	445.63074	1717.08586	16.00457000000008	400.90876	1750.40033	-100.68121999999991	417.53762	1781.67167	-26.447269999999914	272.07766	1686.55232	196.6518800000001	235.30121	1740.1279	-201.4191899999999	311.12427	1399.37815	261.5782100000001	273.61001	1378.66302	212.94021000000006	311.5783	1448.64044	-215.21035999999995	275.82341	1432.12509	-163.79142999999993	405.44906	1140.41062	329.1152200000001	454.03031	1160.16094	303.06523000000004	266.17527	1386.66531	250.11394000000007	430.98827	1194.26996	-249.83017999999996	471.2267	1215.21211	-212.76994999999994	270.99934	1437.23293	-209.02419999999995	593.3041	1058.28789	322.02099	507.66263	1073.21413	348.97904	448.29817	1115.55246	324.12088000000006	628.77522	1159.42314	-189.21712999999997	551.3063	1149.09395	-235.75523999999996	479.28574	1175.93849	-230.19335999999996	37.06022000000001	1223.15764	173.60984000000008	276.22069	846.31249	130.59047000000004	275.25587	847.61783	43.984190000000034	314.75651	875.7677	84.44964000000004	14.07493999999999	1232.57877	-174.34763999999993	438.65003	1091.88613	-143.64383999999998	442.05526	1099.60465	-57.43482999999996	452.72497	1142.68077	-102.32707999999995	322.64529	798.41229	84.79016000000003	132.97413	410.04612	82.80378000000002	138.536	413.73512	14.699230000000016	475.71025	1046.25608	-103.51890999999996	234.50665	692.96375	-165.32378	235.07419	687.23162	-97.10572999999997	50.17035	321.33995	16.00457000000002	220.65873	247.16275	12.769600000000002	196.76538	239.21722	96.99222	230.93116	232.57702	58.96719	87.6846	301.8734	24.80141000000001	305.22187	197.38968	76.73112	123.49624	633.08851	-100.85147999999997	256.30011	503.46285	-112.14548999999998	229.22855	511.91917	-195.34653999999998	259.64858	490.29598	-159.76191	151.36235	602.44146	-113.05354999999997	316.1186	432.86114	-183.99578	
239	3.967	0.0	1250.00218	7.654055843321067E-14	80.24986000000001	1364.58808	132.1795700000001	28.14987999999999	1364.53133	-152.10014999999993	19.353040000000007	1428.09557	116.85605000000008	-23.38256000000001	1428.03882	-116.17499999999991	-38.365559999999995	1181.67062	67.25324000000008	-59.76174	1181.67062	-49.26228999999992	-72.36108	1262.03399	13.280390000000082	-45.23277	1377.64145	9.421130000000087	7.264480000000001	1488.02757	8.22930000000009	66.85596	1582.97666	8.229300000000094	328.83145	1598.86772	-30.874059999999922	223.38291	1711.92127	2.894440000000091	143.53033	1662.37521	6.867210000000093	222.58836	1526.79041	-26.504019999999922	277.98005	1740.58193	0.7378000000000896	506.01678	1751.70567	-69.75040999999992	447.1631	1716.23455	14.812740000000078	401.93033	1749.49227	-101.70278999999991	418.7862	1780.76361	-27.525589999999916	273.55326	1685.64426	195.80057000000008	236.6633	1739.56036	-202.15698999999992	312.77013	1398.64036	260.84041000000013	275.14236	1377.86847	212.31592000000006	313.0539	1448.24317	-215.15360999999993	277.1855	1431.78457	-163.79142999999993	407.09492	1139.72957	328.49093000000005	455.73292	1159.53665	302.55444000000006	267.76437	1385.87075	249.37615000000005	432.57737	1194.0997	-250.34095999999994	472.75906	1214.9851	-213.22397999999995	272.41818	1436.83565	-209.02419999999995	595.34724	1058.23113	321.33995	509.70577	1072.81686	348.298	450.17105	1114.92817	323.5533500000001	630.36432	1159.08262	-189.84141999999997	552.83865	1148.86693	-236.32276999999996	480.87485	1175.71148	-230.70414999999994	39.10336000000001	1225.37104	173.7233500000001	289.1038	855.22283	134.27946000000003	287.28768	855.16608	47.67318000000004	326.27753	885.13208	87.28733000000004	12.42907999999999	1230.19511	-174.2908799999999	433.99622	1080.19485	-145.17618999999996	438.42301	1089.33221	-59.19419999999997	449.60351	1131.38677	-104.88099999999996	331.61238	804.65521	87.51434000000003	118.21814	428.88838	77.63918000000001	124.57456	433.31517	9.64814000000002	474.74544	1037.00522	-105.78905999999998	252.61111	671.05679	-165.43729	254.54074	665.21115	-97.27598999999996	31.72537	345.3468	10.32919000000002	198.41124	262.99705	6.526690000000004	174.17738	255.67582	90.69255	208.00263	247.61678	52.61076	68.27481	324.00738	19.012520000000016	280.47722	208.85394	70.09093	146.19776	604.42784	-101.24875999999998	286.83365	483.37201	-113.11029999999998	259.02429	490.29598	-196.19785	290.86316	470.4889	-160.72673	175.87999	575.65367	-113.56432999999998	350.6249	416.79982	-185.24436	
